
<svg xmlns="http://www.w3.org/2000/svg" xmlns:xlink="http://www.w3.org/1999/xlink" width="200" zoomAndPan="magnify" viewBox="0 0 150 149.999998" height="200" preserveAspectRatio="xMidYMid meet" version="1.0"><defs><clipPath id="e60f7c512e"><path d="M 5.359375 5.359375 L 144.859375 5.359375 L 144.859375 144.859375 L 5.359375 144.859375 Z M 5.359375 5.359375 " clip-rule="nonzero"/></clipPath></defs><g clip-path="url(#e60f7c512e)"><path fill="#f4900c" d="M 144.859375 75.109375 C 144.859375 76.25 144.832031 77.390625 144.773438 78.53125 C 144.71875 79.671875 144.636719 80.808594 144.523438 81.945312 C 144.410156 83.082031 144.273438 84.214844 144.105469 85.34375 C 143.9375 86.472656 143.742188 87.597656 143.519531 88.714844 C 143.296875 89.835938 143.046875 90.949219 142.769531 92.058594 C 142.492188 93.164062 142.1875 94.265625 141.855469 95.355469 C 141.523438 96.449219 141.167969 97.53125 140.78125 98.605469 C 140.398438 99.683594 139.988281 100.746094 139.550781 101.800781 C 139.113281 102.855469 138.648438 103.898438 138.164062 104.929688 C 137.675781 105.960938 137.160156 106.980469 136.621094 107.988281 C 136.085938 108.996094 135.523438 109.988281 134.933594 110.96875 C 134.347656 111.945312 133.738281 112.910156 133.105469 113.859375 C 132.46875 114.808594 131.8125 115.742188 131.132812 116.660156 C 130.453125 117.574219 129.75 118.476562 129.027344 119.359375 C 128.300781 120.242188 127.558594 121.105469 126.789062 121.949219 C 126.023438 122.796875 125.238281 123.621094 124.429688 124.429688 C 123.621094 125.238281 122.796875 126.023438 121.949219 126.789062 C 121.105469 127.558594 120.242188 128.300781 119.359375 129.027344 C 118.476562 129.75 117.574219 130.453125 116.660156 131.132812 C 115.742188 131.8125 114.808594 132.46875 113.859375 133.105469 C 112.910156 133.738281 111.945312 134.347656 110.96875 134.933594 C 109.988281 135.523438 108.996094 136.085938 107.988281 136.621094 C 106.980469 137.160156 105.960938 137.675781 104.929688 138.164062 C 103.898438 138.648438 102.855469 139.113281 101.800781 139.550781 C 100.746094 139.988281 99.683594 140.398438 98.605469 140.78125 C 97.53125 141.167969 96.449219 141.523438 95.355469 141.855469 C 94.265625 142.1875 93.164062 142.492188 92.058594 142.769531 C 90.949219 143.046875 89.835938 143.296875 88.714844 143.519531 C 87.597656 143.742188 86.472656 143.9375 85.34375 144.105469 C 84.214844 144.273438 83.082031 144.410156 81.945312 144.523438 C 80.808594 144.636719 79.671875 144.71875 78.53125 144.773438 C 77.390625 144.832031 76.25 144.859375 75.109375 144.859375 C 73.96875 144.859375 72.828125 144.832031 71.6875 144.773438 C 70.546875 144.71875 69.410156 144.636719 68.273438 144.523438 C 67.136719 144.410156 66.003906 144.273438 64.875 144.105469 C 63.746094 143.9375 62.621094 143.742188 61.5 143.519531 C 60.382812 143.296875 59.269531 143.046875 58.160156 142.769531 C 57.054688 142.492188 55.953125 142.1875 54.863281 141.855469 C 53.769531 141.523438 52.6875 141.167969 51.609375 140.78125 C 50.535156 140.398438 49.472656 139.988281 48.417969 139.550781 C 47.363281 139.113281 46.320312 138.648438 45.285156 138.164062 C 44.253906 137.675781 43.234375 137.160156 42.230469 136.621094 C 41.222656 136.085938 40.230469 135.523438 39.25 134.933594 C 38.269531 134.347656 37.308594 133.738281 36.359375 133.105469 C 35.410156 132.46875 34.476562 131.8125 33.558594 131.132812 C 32.640625 130.453125 31.742188 129.75 30.859375 129.027344 C 29.976562 128.300781 29.113281 127.558594 28.269531 126.789062 C 27.421875 126.023438 26.59375 125.238281 25.789062 124.429688 C 24.980469 123.621094 24.195312 122.796875 23.425781 121.949219 C 22.660156 121.105469 21.914062 120.242188 21.191406 119.359375 C 20.46875 118.476562 19.765625 117.574219 19.085938 116.660156 C 18.40625 115.742188 17.75 114.808594 17.113281 113.859375 C 16.480469 112.910156 15.871094 111.945312 15.28125 110.96875 C 14.695312 109.988281 14.132812 108.996094 13.59375 107.988281 C 13.058594 106.980469 12.542969 105.960938 12.054688 104.929688 C 11.566406 103.898438 11.105469 102.855469 10.667969 101.800781 C 10.230469 100.746094 9.820312 99.683594 9.4375 98.605469 C 9.050781 97.53125 8.695312 96.449219 8.363281 95.355469 C 8.03125 94.265625 7.726562 93.164062 7.449219 92.058594 C 7.171875 90.949219 6.921875 89.835938 6.699219 88.714844 C 6.476562 87.597656 6.28125 86.472656 6.113281 85.34375 C 5.945312 84.214844 5.808594 83.082031 5.695312 81.945312 C 5.582031 80.808594 5.5 79.671875 5.441406 78.53125 C 5.386719 77.390625 5.359375 76.25 5.359375 75.109375 C 5.359375 73.96875 5.386719 72.828125 5.441406 71.6875 C 5.5 70.546875 5.582031 69.410156 5.695312 68.273438 C 5.808594 67.136719 5.945312 66.003906 6.113281 64.875 C 6.28125 63.746094 6.476562 62.621094 6.699219 61.5 C 6.921875 60.382812 7.171875 59.269531 7.449219 58.160156 C 7.726562 57.054688 8.03125 55.953125 8.363281 54.863281 C 8.695312 53.769531 9.050781 52.6875 9.4375 51.609375 C 9.820312 50.535156 10.230469 49.472656 10.667969 48.417969 C 11.105469 47.363281 11.566406 46.320312 12.054688 45.285156 C 12.542969 44.253906 13.058594 43.234375 13.59375 42.230469 C 14.132812 41.222656 14.695312 40.230469 15.28125 39.25 C 15.871094 38.269531 16.480469 37.308594 17.113281 36.359375 C 17.75 35.410156 18.40625 34.476562 19.085938 33.558594 C 19.765625 32.640625 20.46875 31.742188 21.191406 30.859375 C 21.914062 29.976562 22.660156 29.113281 23.425781 28.269531 C 24.195312 27.421875 24.980469 26.59375 25.789062 25.789062 C 26.59375 24.980469 27.421875 24.195312 28.269531 23.425781 C 29.113281 22.660156 29.976562 21.914062 30.859375 21.191406 C 31.742188 20.46875 32.640625 19.765625 33.558594 19.085938 C 34.476562 18.40625 35.410156 17.75 36.359375 17.113281 C 37.308594 16.480469 38.269531 15.871094 39.25 15.28125 C 40.230469 14.695312 41.222656 14.132812 42.230469 13.59375 C 43.234375 13.058594 44.253906 12.542969 45.285156 12.054688 C 46.320312 11.566406 47.363281 11.105469 48.417969 10.667969 C 49.472656 10.230469 50.535156 9.820312 51.609375 9.4375 C 52.6875 9.050781 53.769531 8.695312 54.863281 8.363281 C 55.953125 8.03125 57.054688 7.726562 58.160156 7.449219 C 59.269531 7.171875 60.382812 6.921875 61.5 6.699219 C 62.621094 6.476562 63.746094 6.28125 64.875 6.113281 C 66.003906 5.945312 67.136719 5.808594 68.273438 5.695312 C 69.410156 5.582031 70.546875 5.5 71.6875 5.441406 C 72.828125 5.386719 73.96875 5.359375 75.109375 5.359375 C 76.25 5.359375 77.390625 5.386719 78.53125 5.441406 C 79.671875 5.5 80.808594 5.582031 81.945312 5.695312 C 83.082031 5.808594 84.214844 5.945312 85.34375 6.113281 C 86.472656 6.28125 87.597656 6.476562 88.714844 6.699219 C 89.835938 6.921875 90.949219 7.171875 92.058594 7.449219 C 93.164062 7.726562 94.265625 8.03125 95.355469 8.363281 C 96.449219 8.695312 97.53125 9.050781 98.605469 9.4375 C 99.683594 9.820312 100.746094 10.230469 101.800781 10.667969 C 102.855469 11.105469 103.898438 11.566406 104.929688 12.054688 C 105.960938 12.542969 106.980469 13.058594 107.988281 13.59375 C 108.996094 14.132812 109.988281 14.695312 110.96875 15.28125 C 111.945312 15.871094 112.910156 16.480469 113.859375 17.113281 C 114.808594 17.75 115.742188 18.40625 116.660156 19.085938 C 117.574219 19.765625 118.476562 20.46875 119.359375 21.191406 C 120.242188 21.914062 121.105469 22.660156 121.949219 23.425781 C 122.796875 24.195312 123.621094 24.980469 124.429688 25.789062 C 125.238281 26.59375 126.023438 27.421875 126.789062 28.269531 C 127.558594 29.113281 128.300781 29.976562 129.027344 30.859375 C 129.75 31.742188 130.453125 32.640625 131.132812 33.558594 C 131.8125 34.476562 132.46875 35.410156 133.105469 36.359375 C 133.738281 37.308594 134.347656 38.269531 134.933594 39.25 C 135.523438 40.230469 136.085938 41.222656 136.621094 42.230469 C 137.160156 43.234375 137.675781 44.253906 138.164062 45.285156 C 138.648438 46.320312 139.113281 47.363281 139.550781 48.417969 C 139.988281 49.472656 140.398438 50.535156 140.78125 51.609375 C 141.167969 52.6875 141.523438 53.769531 141.855469 54.863281 C 142.1875 55.953125 142.492188 57.054688 142.769531 58.160156 C 143.046875 59.269531 143.296875 60.382812 143.519531 61.5 C 143.742188 62.621094 143.9375 63.746094 144.105469 64.875 C 144.273438 66.003906 144.410156 67.136719 144.523438 68.273438 C 144.636719 69.410156 144.71875 70.546875 144.773438 71.6875 C 144.832031 72.828125 144.859375 73.96875 144.859375 75.109375 Z M 144.859375 75.109375 " fill-opacity="1" fill-rule="nonzero"/></g><path fill="#ffd983" d="M 131.296875 75.109375 C 131.296875 76.949219 131.207031 78.785156 131.027344 80.617188 C 130.84375 82.449219 130.574219 84.265625 130.21875 86.070312 C 129.859375 87.875 129.410156 89.660156 128.878906 91.417969 C 128.34375 93.179688 127.722656 94.910156 127.019531 96.609375 C 126.316406 98.3125 125.53125 99.972656 124.660156 101.59375 C 123.792969 103.21875 122.847656 104.796875 121.828125 106.324219 C 120.804688 107.855469 119.710938 109.332031 118.542969 110.753906 C 117.375 112.175781 116.140625 113.539062 114.839844 114.839844 C 113.539062 116.140625 112.175781 117.375 110.753906 118.542969 C 109.332031 119.710938 107.855469 120.804688 106.324219 121.828125 C 104.796875 122.847656 103.21875 123.792969 101.59375 124.660156 C 99.972656 125.53125 98.3125 126.316406 96.609375 127.019531 C 94.910156 127.722656 93.179688 128.34375 91.417969 128.878906 C 89.660156 129.410156 87.875 129.859375 86.070312 130.21875 C 84.265625 130.574219 82.449219 130.84375 80.617188 131.027344 C 78.785156 131.207031 76.949219 131.296875 75.109375 131.296875 C 73.269531 131.296875 71.433594 131.207031 69.601562 131.027344 C 67.769531 130.84375 65.953125 130.574219 64.148438 130.21875 C 62.34375 129.859375 60.558594 129.410156 58.796875 128.878906 C 57.039062 128.34375 55.308594 127.722656 53.605469 127.019531 C 51.90625 126.316406 50.246094 125.53125 48.621094 124.660156 C 47 123.792969 45.421875 122.847656 43.894531 121.828125 C 42.363281 120.804688 40.886719 119.710938 39.464844 118.542969 C 38.042969 117.375 36.679688 116.140625 35.378906 114.839844 C 34.078125 113.539062 32.84375 112.175781 31.675781 110.753906 C 30.507812 109.332031 29.414062 107.855469 28.390625 106.324219 C 27.367188 104.796875 26.421875 103.21875 25.554688 101.59375 C 24.6875 99.972656 23.902344 98.3125 23.199219 96.609375 C 22.496094 94.910156 21.875 93.179688 21.339844 91.417969 C 20.808594 89.660156 20.359375 87.875 20 86.070312 C 19.640625 84.265625 19.371094 82.449219 19.191406 80.617188 C 19.011719 78.785156 18.921875 76.949219 18.921875 75.109375 C 18.921875 73.269531 19.011719 71.433594 19.191406 69.601562 C 19.371094 67.769531 19.640625 65.953125 20 64.148438 C 20.359375 62.34375 20.808594 60.558594 21.339844 58.796875 C 21.875 57.039062 22.496094 55.308594 23.199219 53.605469 C 23.902344 51.90625 24.6875 50.246094 25.554688 48.621094 C 26.421875 47 27.367188 45.421875 28.390625 43.894531 C 29.414062 42.363281 30.507812 40.886719 31.675781 39.464844 C 32.84375 38.042969 34.078125 36.679688 35.378906 35.378906 C 36.679688 34.078125 38.042969 32.84375 39.464844 31.675781 C 40.886719 30.507812 42.363281 29.414062 43.894531 28.390625 C 45.421875 27.367188 47 26.421875 48.621094 25.554688 C 50.246094 24.6875 51.90625 23.902344 53.605469 23.199219 C 55.308594 22.496094 57.039062 21.875 58.796875 21.339844 C 60.558594 20.808594 62.34375 20.359375 64.148438 20 C 65.953125 19.640625 67.769531 19.371094 69.601562 19.191406 C 71.433594 19.011719 73.269531 18.921875 75.109375 18.921875 C 76.949219 18.921875 78.785156 19.011719 80.617188 19.191406 C 82.449219 19.371094 84.265625 19.640625 86.070312 20 C 87.875 20.359375 89.660156 20.808594 91.417969 21.339844 C 93.179688 21.875 94.910156 22.496094 96.609375 23.199219 C 98.3125 23.902344 99.972656 24.6875 101.59375 25.554688 C 103.21875 26.421875 104.796875 27.367188 106.324219 28.390625 C 107.855469 29.414062 109.332031 30.507812 110.753906 31.675781 C 112.175781 32.84375 113.539062 34.078125 114.839844 35.378906 C 116.140625 36.679688 117.375 38.042969 118.542969 39.464844 C 119.710938 40.886719 120.804688 42.363281 121.828125 43.894531 C 122.847656 45.421875 123.792969 47 124.660156 48.621094 C 125.53125 50.246094 126.316406 51.90625 127.019531 53.605469 C 127.722656 55.308594 128.34375 57.039062 128.878906 58.796875 C 129.410156 60.558594 129.859375 62.34375 130.21875 64.148438 C 130.574219 65.953125 130.84375 67.769531 131.027344 69.601562 C 131.207031 71.433594 131.296875 73.269531 131.296875 75.109375 Z M 131.296875 75.109375 " fill-opacity="1" fill-rule="nonzero"/><path fill="#f5f8fa" d="M 125.484375 75.109375 C 125.484375 76.757812 125.402344 78.40625 125.242188 80.046875 C 125.078125 81.6875 124.839844 83.320312 124.515625 84.9375 C 124.195312 86.554688 123.792969 88.152344 123.316406 89.730469 C 122.835938 91.3125 122.28125 92.863281 121.648438 94.386719 C 121.019531 95.910156 120.3125 97.402344 119.535156 98.855469 C 118.757812 100.3125 117.910156 101.722656 116.996094 103.097656 C 116.078125 104.46875 115.097656 105.792969 114.050781 107.066406 C 113.003906 108.34375 111.894531 109.5625 110.730469 110.730469 C 109.5625 111.894531 108.34375 113.003906 107.066406 114.050781 C 105.792969 115.097656 104.46875 116.078125 103.097656 116.996094 C 101.722656 117.910156 100.3125 118.757812 98.855469 119.535156 C 97.402344 120.3125 95.910156 121.019531 94.386719 121.648438 C 92.863281 122.28125 91.3125 122.835938 89.730469 123.316406 C 88.152344 123.792969 86.554688 124.195312 84.9375 124.515625 C 83.320312 124.839844 81.6875 125.078125 80.046875 125.242188 C 78.40625 125.402344 76.757812 125.484375 75.109375 125.484375 C 73.460938 125.484375 71.8125 125.402344 70.171875 125.242188 C 68.53125 125.078125 66.898438 124.839844 65.28125 124.515625 C 63.664062 124.195312 62.066406 123.792969 60.484375 123.316406 C 58.90625 122.835938 57.355469 122.28125 55.832031 121.648438 C 54.308594 121.019531 52.816406 120.3125 51.363281 119.535156 C 49.90625 118.757812 48.492188 117.910156 47.121094 116.996094 C 45.75 116.078125 44.425781 115.097656 43.152344 114.050781 C 41.875 113.003906 40.65625 111.894531 39.488281 110.730469 C 38.320312 109.5625 37.214844 108.34375 36.167969 107.066406 C 35.121094 105.792969 34.140625 104.46875 33.222656 103.097656 C 32.308594 101.722656 31.460938 100.3125 30.683594 98.855469 C 29.90625 97.402344 29.199219 95.910156 28.570312 94.386719 C 27.9375 92.863281 27.382812 91.3125 26.902344 89.730469 C 26.425781 88.152344 26.023438 86.554688 25.703125 84.9375 C 25.378906 83.320312 25.136719 81.6875 24.976562 80.046875 C 24.816406 78.40625 24.734375 76.757812 24.734375 75.109375 C 24.734375 73.460938 24.816406 71.8125 24.976562 70.171875 C 25.136719 68.53125 25.378906 66.898438 25.703125 65.28125 C 26.023438 63.664062 26.425781 62.066406 26.902344 60.484375 C 27.382812 58.90625 27.9375 57.355469 28.570312 55.832031 C 29.199219 54.308594 29.90625 52.816406 30.683594 51.363281 C 31.460938 49.90625 32.308594 48.492188 33.222656 47.121094 C 34.140625 45.75 35.121094 44.425781 36.167969 43.152344 C 37.214844 41.875 38.320312 40.65625 39.488281 39.488281 C 40.65625 38.320312 41.875 37.214844 43.152344 36.167969 C 44.425781 35.121094 45.75 34.140625 47.121094 33.222656 C 48.492188 32.308594 49.90625 31.460938 51.363281 30.683594 C 52.816406 29.90625 54.308594 29.199219 55.832031 28.570312 C 57.355469 27.9375 58.90625 27.382812 60.484375 26.902344 C 62.066406 26.425781 63.664062 26.023438 65.28125 25.703125 C 66.898438 25.378906 68.53125 25.136719 70.171875 24.976562 C 71.8125 24.816406 73.460938 24.734375 75.109375 24.734375 C 76.757812 24.734375 78.40625 24.816406 80.046875 24.976562 C 81.6875 25.136719 83.320312 25.378906 84.9375 25.703125 C 86.554688 26.023438 88.152344 26.425781 89.730469 26.902344 C 91.3125 27.382812 92.863281 27.9375 94.386719 28.570312 C 95.910156 29.199219 97.402344 29.90625 98.855469 30.683594 C 100.3125 31.460938 101.722656 32.308594 103.097656 33.222656 C 104.46875 34.140625 105.792969 35.121094 107.066406 36.167969 C 108.34375 37.214844 109.5625 38.320312 110.730469 39.488281 C 111.894531 40.65625 113.003906 41.875 114.050781 43.152344 C 115.097656 44.425781 116.078125 45.75 116.996094 47.121094 C 117.910156 48.492188 118.757812 49.90625 119.535156 51.363281 C 120.3125 52.816406 121.019531 54.308594 121.648438 55.832031 C 122.28125 57.355469 122.835938 58.90625 123.316406 60.484375 C 123.792969 62.066406 124.195312 63.664062 124.515625 65.28125 C 124.839844 66.898438 125.078125 68.53125 125.242188 70.171875 C 125.402344 71.8125 125.484375 73.460938 125.484375 75.109375 Z M 125.484375 75.109375 " fill-opacity="1" fill-rule="nonzero"/><path fill="#ccd6dd" d="M 75.109375 36.359375 L 81.042969 60.785156 L 102.507812 47.707031 L 89.429688 69.175781 L 113.859375 75.109375 L 89.429688 81.042969 L 102.507812 102.507812 L 81.042969 89.429688 L 75.109375 113.859375 L 69.175781 89.429688 L 47.707031 102.507812 L 60.785156 81.042969 L 36.359375 75.109375 L 60.785156 69.175781 L 47.707031 47.707031 L 69.175781 60.785156 Z M 75.109375 36.359375 " fill-opacity="1" fill-rule="nonzero"/><path fill="#292f33" d="M 72.5625 85.757812 L 106.574219 106.609375 L 85.730469 72.59375 Z M 72.5625 85.757812 " fill-opacity="1" fill-rule="nonzero"/><path fill="#dd2e44" d="M 77.65625 64.519531 L 43.640625 43.667969 L 64.488281 77.6875 Z M 77.65625 64.519531 " fill-opacity="1" fill-rule="nonzero"/><path fill="#8899a6" d="M 86.945312 75.140625 C 86.945312 75.917969 86.871094 76.6875 86.71875 77.449219 C 86.566406 78.210938 86.34375 78.953125 86.046875 79.671875 C 85.75 80.386719 85.382812 81.070312 84.953125 81.71875 C 84.519531 82.363281 84.03125 82.960938 83.480469 83.511719 C 82.929688 84.058594 82.332031 84.550781 81.6875 84.984375 C 81.039062 85.414062 80.355469 85.78125 79.640625 86.078125 C 78.921875 86.375 78.179688 86.597656 77.417969 86.75 C 76.65625 86.902344 75.886719 86.976562 75.109375 86.976562 C 74.332031 86.976562 73.5625 86.902344 72.800781 86.75 C 72.039062 86.597656 71.296875 86.375 70.578125 86.078125 C 69.859375 85.78125 69.179688 85.414062 68.53125 84.984375 C 67.886719 84.550781 67.289062 84.058594 66.738281 83.511719 C 66.1875 82.960938 65.699219 82.363281 65.265625 81.71875 C 64.835938 81.070312 64.46875 80.386719 64.171875 79.671875 C 63.875 78.953125 63.648438 78.210938 63.5 77.449219 C 63.347656 76.6875 63.269531 75.917969 63.269531 75.140625 C 63.269531 74.363281 63.347656 73.59375 63.5 72.832031 C 63.648438 72.066406 63.875 71.328125 64.171875 70.609375 C 64.46875 69.890625 64.835938 69.210938 65.265625 68.5625 C 65.699219 67.917969 66.1875 67.320312 66.738281 66.769531 C 67.289062 66.21875 67.886719 65.730469 68.53125 65.296875 C 69.179688 64.863281 69.859375 64.5 70.578125 64.203125 C 71.296875 63.90625 72.039062 63.679688 72.800781 63.53125 C 73.5625 63.378906 74.332031 63.300781 75.109375 63.300781 C 75.886719 63.300781 76.65625 63.378906 77.417969 63.53125 C 78.179688 63.679688 78.921875 63.90625 79.640625 64.203125 C 80.355469 64.5 81.039062 64.863281 81.6875 65.296875 C 82.332031 65.730469 82.929688 66.21875 83.480469 66.769531 C 84.03125 67.320312 84.519531 67.917969 84.953125 68.5625 C 85.382812 69.210938 85.75 69.890625 86.046875 70.609375 C 86.34375 71.328125 86.566406 72.066406 86.71875 72.832031 C 86.871094 73.59375 86.945312 74.363281 86.945312 75.140625 Z M 86.945312 75.140625 " fill-opacity="1" fill-rule="nonzero"/><path fill="#f5f8fa" d="M 81.496094 75.140625 C 81.496094 75.558594 81.453125 75.972656 81.371094 76.386719 C 81.289062 76.796875 81.167969 77.195312 81.007812 77.582031 C 80.847656 77.972656 80.652344 78.339844 80.417969 78.6875 C 80.1875 79.035156 79.921875 79.359375 79.625 79.65625 C 79.328125 79.953125 79.003906 80.21875 78.65625 80.449219 C 78.308594 80.683594 77.941406 80.878906 77.554688 81.039062 C 77.164062 81.199219 76.765625 81.320312 76.355469 81.402344 C 75.945312 81.484375 75.527344 81.527344 75.109375 81.527344 C 74.691406 81.527344 74.273438 81.484375 73.863281 81.402344 C 73.453125 81.320312 73.050781 81.199219 72.664062 81.039062 C 72.277344 80.878906 71.910156 80.683594 71.5625 80.449219 C 71.210938 80.21875 70.890625 79.953125 70.59375 79.65625 C 70.296875 79.359375 70.03125 79.035156 69.800781 78.6875 C 69.566406 78.339844 69.371094 77.972656 69.210938 77.582031 C 69.046875 77.195312 68.925781 76.796875 68.84375 76.386719 C 68.765625 75.972656 68.722656 75.558594 68.722656 75.140625 C 68.722656 74.71875 68.765625 74.304688 68.847656 73.894531 C 68.925781 73.484375 69.046875 73.082031 69.210938 72.695312 C 69.371094 72.308594 69.566406 71.941406 69.800781 71.59375 C 70.03125 71.242188 70.296875 70.921875 70.59375 70.625 C 70.890625 70.328125 71.210938 70.0625 71.5625 69.832031 C 71.910156 69.597656 72.277344 69.402344 72.664062 69.238281 C 73.050781 69.078125 73.453125 68.957031 73.863281 68.875 C 74.273438 68.792969 74.691406 68.753906 75.109375 68.753906 C 75.527344 68.753906 75.945312 68.792969 76.355469 68.875 C 76.765625 68.957031 77.164062 69.078125 77.554688 69.238281 C 77.941406 69.402344 78.308594 69.597656 78.65625 69.832031 C 79.003906 70.0625 79.328125 70.328125 79.625 70.625 C 79.921875 70.921875 80.1875 71.242188 80.417969 71.59375 C 80.652344 71.941406 80.847656 72.308594 81.007812 72.695312 C 81.167969 73.082031 81.289062 73.484375 81.371094 73.894531 C 81.453125 74.304688 81.496094 74.71875 81.496094 75.140625 Z M 81.496094 75.140625 " fill-opacity="1" fill-rule="nonzero"/></svg>